<?xml version="1.0" standalone="no"?>
<!DOCTYPE svg PUBLIC "-//W3C//DTD SVG 20010904//EN"
 "http://www.w3.org/TR/2001/REC-SVG-20010904/DTD/svg10.dtd">
<svg version="1.0" xmlns="http://www.w3.org/2000/svg"
 width="500.000000pt" height="500.000000pt" viewBox="0 0 500.000000 500.000000"
 preserveAspectRatio="xMidYMid meet">
<metadata>
Created by potrace 1.11, written by Peter Selinger 2001-2013
</metadata>
<g transform="translate(0.000000,500.000000) scale(0.100000,-0.100000)"
fill="#000000" stroke="none">
<path d="M1667 4464 c-1 -1 -40 -4 -87 -7 -154 -12 -289 -44 -404 -97 -276
-128 -441 -397 -472 -774 -12 -136 -7 -1468 5 -1511 16 -60 46 -101 93 -132
40 -25 51 -27 148 -28 79 0 112 4 135 17 42 22 80 62 102 106 17 35 18 80 20
752 3 767 6 822 53 925 31 71 106 150 171 182 118 58 86 57 1159 57 912 1 988
0 1030 -16 92 -36 134 -102 145 -228 12 -136 37 -192 103 -234 58 -36 148 -49
236 -32 73 14 138 72 158 140 18 64 14 271 -8 356 -38 151 -82 237 -164 321
-62 63 -156 129 -183 129 -7 0 -17 4 -23 9 -12 12 -154 48 -224 57 -42 5
-1986 13 -1993 8z"/>
<path d="M3115 3749 c-27 -10 -63 -32 -81 -50 -64 -62 -63 -54 -67 -874 -2
-731 -3 -741 -24 -805 -44 -129 -125 -217 -240 -260 -84 -31 -123 -35 -368
-35 -243 1 -263 4 -323 66 -38 39 -59 100 -65 194 -9 122 -52 199 -131 231
-56 22 -159 27 -222 9 -108 -31 -146 -91 -149 -235 -5 -258 59 -454 192 -585
96 -96 214 -150 388 -180 82 -14 589 -15 665 -1 219 41 343 90 467 187 150
116 242 277 296 519 20 92 21 123 25 858 3 674 1 769 -13 817 -19 67 -61 117
-118 140 -61 25 -173 27 -232 4z"/>
<path d="M3920 3050 c-28 -10 -67 -32 -86 -51 -64 -62 -63 -52 -64 -848 -1
-787 -1 -784 -62 -908 -52 -107 -134 -167 -275 -204 -72 -18 -120 -19 -1052
-18 -894 0 -980 1 -1022 17 -25 9 -54 24 -65 32 -51 39 -84 118 -86 207 -1 70
-33 164 -65 195 -53 49 -91 62 -188 62 -74 1 -98 -3 -137 -22 -88 -43 -121
-117 -120 -262 5 -352 151 -591 420 -685 156 -55 149 -54 1287 -52 578 2 1061
6 1075 9 14 4 41 9 60 12 63 10 154 36 220 63 274 113 432 322 497 656 16 84
18 163 18 872 0 779 0 780 -22 820 -27 51 -58 80 -108 101 -56 23 -162 25
-225 4z"/>
</g>
</svg>
